/* XPM */
static char * collectible_xpm[] = {
"50 50 92 2",
"  	c #47C14E",
". 	c #000000",
"+ 	c #663F0E",
"@ 	c #743708",
"# 	c #061006",
"$ 	c #000100",
"% 	c #0D0500",
"& 	c #A44C08",
"* 	c #C2590C",
"= 	c #3A1B02",
"- 	c #3E9C3F",
"; 	c #9D4809",
"> 	c #341A03",
", 	c #5D3109",
"' 	c #5F2E07",
") 	c #602C06",
"! 	c #241101",
"~ 	c #BA560B",
"{ 	c #B4530A",
"] 	c #BF580C",
"^ 	c #7E3A08",
"/ 	c #713909",
"( 	c #375A21",
"_ 	c #276327",
": 	c #2C6D2C",
"< 	c #A94E09",
"[ 	c #160A00",
"} 	c #4E2404",
"| 	c #AE5009",
"1 	c #442002",
"2 	c #361E14",
"3 	c #61A53B",
"4 	c #6CC94A",
"5 	c #6AC649",
"6 	c #763A00",
"7 	c #743604",
"8 	c #8B4203",
"9 	c #823E02",
"0 	c #7B3C01",
"a 	c #854003",
"b 	c #714317",
"c 	c #924505",
"d 	c #120700",
"e 	c #3B8232",
"f 	c #6B3400",
"g 	c #362008",
"h 	c #2D1600",
"i 	c #0B1D0C",
"j 	c #312607",
"k 	c #34742D",
"l 	c #3C8C37",
"m 	c #337F33",
"n 	c #B1643F",
"o 	c #B76630",
"p 	c #CB751D",
"q 	c #C77720",
"r 	c #BF701B",
"s 	c #C2731D",
"t 	c #BD6E1A",
"u 	c #BC6945",
"v 	c #C16E3B",
"w 	c #CE7C21",
"x 	c #D07D21",
"y 	c #C27038",
"z 	c #C37136",
"A 	c #338234",
"B 	c #BF6D3E",
"C 	c #426F30",
"D 	c #49291B",
"E 	c #47281A",
"F 	c #693B27",
"G 	c #52360E",
"H 	c #447D30",
"I 	c #B46542",
"J 	c #C16C47",
"K 	c #3D6D2C",
"L 	c #5D3522",
"M 	c #703F29",
"N 	c #673D10",
"O 	c #644213",
"P 	c #25150E",
"Q 	c #A55D3D",
"R 	c #150C07",
"S 	c #AE6038",
"T 	c #276428",
"U 	c #335E28",
"V 	c #6B432A",
"W 	c #73402A",
"X 	c #050D05",
"Y 	c #225422",
"Z 	c #1C471C",
"` 	c #265F26",
"                                                                                                    ",
"                                                                                                    ",
"                                                                                                    ",
"                                                                                                    ",
"                                                                                                    ",
"                                                                                                    ",
"                                                        . . .                                       ",
"                                                        . . .                                       ",
"                                                        . . .                                       ",
"                                            . . . . . . + @ @ . . .                                 ",
"                                            # $ $ $ $ % & * * = . . -                               ",
"                                            # $ $ $ $ % ; * * > . . -                               ",
"                                      . . . , ' ) ) ) ) ' ) ' . . .                                 ",
"                                      . . ! ~ * * * * ~ ! $ $                                       ",
"                                      . . ! { ] * * * ~ ! $ $                                       ",
"                                . . . . . ! { * ~ ^ @ / ( _ :                                       ",
"                              . . . . . . ! { * < [ $ #                                             ",
"                              . . . . . . ! { * < [ $ #                                             ",
"                              . ! ! ! = = } & | & 1 > 2 3 4 5                                       ",
"                        . . . . 6 7 8 ~ ~ | 9 0 9 { ] ~ a b 6 ! . . -                               ",
"                        . . . . 6 6 8 ~ * { 0 6 9 ~ * ~ a 6 6 ! . . -                               ",
"                        . . . 1 9 9 c { { < 8 9 8 < { | c a 9 > d d e                               ",
"                  . . . . 6 7 8 ] ~ < 9 0 8 ~ ~ { 9 0 9 | ~ ~ 9 f 6 g . . .                         ",
"                  . . . . 0 6 c * * < 0 6 9 ~ * ~ 9 6 0 { * * c 6 0 h . . .                         ",
"                  . i i . f f 8 ~ ~ < a 9 8 { ~ | 8 9 a | ~ { 9 f f j i i .                         ",
"                        k . . . 0 9 8 { ~ | 9 9 9 | ~ { 8 0 0 . . . l                               ",
"                        m . . . 6 6 8 * * | 0 6 9 ~ * ~ a 6 6 . . . -                               ",
"                        m . . . 0 0 8 * * { a b 8 ~ * ~ 8 0 0 . . . -                               ",
"                        m . . . n n o p q p r r r p p p s r t . . . -                               ",
"                        m . . . u u v w x x w x x w x x x x q . . . -                               ",
"                        m . . . u u v x x x p w w x w x w w w . . . -                               ",
"                        m . . . u u u v y z x x w w w x w w p . . . -                               ",
"                        A . . . u u u u u u w x w x w w x x q . . . -                               ",
"                        m . . . u u u u u B w p w w w x x x w . . . -                               ",
"                          - - C D E F u u u y y y w x q G . . H - -                                 ",
"                              - . . . I u u u u u w w q . . .                                       ",
"                              - . . . u J u u u u w x q . . .                                       ",
"                                m A K L L M I u n b N O . . .                                       ",
"                                      . . P I u Q R . .                                             ",
"                                      . . P I J S R . .                                             ",
"                                      T T U V W V U _ :                                             ",
"                                            X $ .                                                   ",
"                                            # $ .                                                   ",
"                                            Y Z `                                                   ",
"                                                                                                    ",
"                                                                                                    ",
"                                                                                                    ",
"                                                                                                    ",
"                                                                                                    ",
"                                                                                                    "};
