/* XPM */
static char *collectible[] = {
/* columns rows colors chars-per-pixel */
"50 50 100 2 ",
"   c #130D0B",
".  c #0A1404",
"X  c #061A06",
"o  c #0D1B05",
"O  c #0F1108",
"+  c #0F1D0B",
"@  c #14160C",
"#  c #101E0C",
"$  c #1C1B11",
"%  c #241D15",
"&  c #291F18",
"*  c #0C2709",
"=  c #0D2C0A",
"-  c #122507",
";  c #142807",
":  c #152C08",
">  c #1C2B0D",
",  c #0C330C",
"<  c #0C3C0E",
"1  c #14360B",
"2  c #1A340A",
"3  c #143B0D",
"4  c #1D3C0B",
"5  c #1C2913",
"6  c #163512",
"7  c #21380E",
"8  c #232315",
"9  c #212911",
"0  c #2D231A",
"q  c #30271D",
"w  c #33291E",
"e  c #263B12",
"r  c #362B20",
"t  c #392C21",
"y  c #3C3123",
"u  c #423527",
"i  c #433728",
"p  c #463929",
"a  c #4A3D2B",
"s  c #15440F",
"d  c #1C430D",
"f  c #1F490F",
"g  c #0D4210",
"h  c #0E4A12",
"j  c #154710",
"k  c #124B11",
"l  c #0F5514",
"z  c #115514",
"x  c #125D16",
"c  c #22440D",
"v  c #254C0E",
"b  c #27510F",
"n  c #28510F",
"m  c #2A4713",
"M  c #2B4B13",
"N  c #275310",
"B  c #2A5510",
"V  c #2D5B11",
"C  c #315F12",
"Z  c #126017",
"A  c #136418",
"S  c #146B1A",
"D  c #16731B",
"F  c #177B1D",
"G  c #187F1E",
"H  c #2F6112",
"J  c #316413",
"K  c #356B14",
"L  c #386F15",
"P  c #377115",
"I  c #397416",
"U  c #3D7B17",
"Y  c #3F7E18",
"T  c #407F18",
"R  c #4F412E",
"E  c #554532",
"W  c #5B4A36",
"Q  c #5F4E38",
"!  c #18821F",
"~  c #3F8118",
"^  c #198620",
"/  c #1A8C22",
"(  c #47C14E",
")  c #258E20",
"_  c #239723",
"`  c #2C9D24",
"'  c #2EA124",
"]  c #30A324",
"[  c #38A022",
"{  c #418319",
"}  c #458C1B",
"|  c #47901B",
" . c #49941C",
".. c #4C9A1E",
"X. c #4FA01F",
"o. c #50A21F",
"O. c #52A820",
"+. c #56B222",
"@. c #5BBB24",
"#. c #5FC226",
/* pixels */
"( ( ( ( ( ( ( ( ( ( ( ( ( ( ( ! ! ( ( S ! A s s H , l v I - n { 3 k C d Z A S ! _ ( ( ( ( ( ( ( ( ( ",
"( ( ( ( ( ( ( ( ( ( Z A F ! ! k k ! z 4 j v K J } f s c K Y U U n 2  .{ d 4 4 x ( ( ( ( ( ( ( ( ( ( ",
"( ( ( ( ( ( ( F Z x v v s s A 4 L 3 C } K { .. ...Y P 2 V I v ; 2 I ........} = ( ( ( ( ( ( ( ( ( ( ",
"( ( ( ( ( ( F d n n  .T I C 4 ~ ..U | .. ...|  .......I 4 c v T } ..}  . .| ..K k ! ( ( ( ( ( ( ( ( ",
"( ( ( ( ( F s { .. .} { K 4 ~  ..... .| ..} | .. .}  . .n c { { | ..o.....} | | f S _ ( ( ( ( ( ( ( ",
"( ( ( ( ( S v  .o.| | K 4 U o. .} | } | ..} ..|  .|  .V v U Y Y { |  . .} .. .v A ( ( ( ( ( ( ( ( ( ",
"( ( ( ( ( ( , Y .. .| I c K | { { } Y Y } } { { } { Y B 2 ; ; J I I }  . ...} o , , , h ! ( ( ( ( ( ",
"( ( ( ( ( ^ * { ..}  .~ I 4 K I I { n c I { U I ~ Y v : K Y Y 7 - c J I  . .U v 2 I { v A ( ( ( ( ( ",
"( ( ( ( ^ j : V  ... .{ Y I 7 c c J : v n U c c v c n  .o...X.o.{ c : 2 J I 4 4 I | } d D ( ( ( ( ( ",
"( ( ( ( x v ~ c V ....} { Y J 4 K 4 V P 7 V 2 c : n { { | | | | c V Y I c c K Y { } X.{ f F ( ( ( ( ",
"( ( ( F d U { H 4 X.{ ~ T L 4 ~  .I |  .P 4 U Y 4 ; ; n Y  ... .V v Y { I I Y }  ...~ 4 k ! ( ( ( ( ",
"( ( / , Y ..} J 4 K 2 4 v . I o.o. . . .X.{ ....{ { I 4 L  . .| | c V { | | } .... .f l ! ( ( ( ( ( ",
"( ( ( k J ..} ~ V 2 I K B v n  . . .} ..} ..| | o.} c C { ......~ c J { }  .|  . . .} v j ! ( ( ( ( ",
"( ( ( k J X. . .Y Y U { U I ; }  . ... ...} ..| ..{ c C { | | { 7 - c { } } } | { } X. .v A ( ( ( ( ",
"( ( ( S v } .. . .{ } { Y 4 K ...... . .| .. .|  ...I 2 - - ; ; V C 2 K U K U U I { ..J k ! ( ( ( ( ",
"( ( ( S h H ..|  ..... .{ 7 J ..........o.....o.o.{ v V I I I I T { : K n ; b v 4 I { s G ( ( ( ( ( ",
"( ( A d C ...... ...} | T b n  .} V } I c | I c { c c J { | } { | ..J c v Y v c v c ..{ s G ( ( ( ( ",
"( ( S 3 n V 2 { ..| ..} n v { K : v 2 7 v 2 4 n 4 C c n .. ..... .....: I { }  .I 4 : 4 o x ( ( ( ( ",
"( ( ( F k c V 4 n n | | 4 - - 4 J I J I Y K K Y K U U c L  .} | } } ..J 4 { .. ...4 c V H 4 D ( ( ( ",
"( ( ( Z v ~ I V v c n C ; v I U ~ U Y Y U U Y ~ { } I n c  .X.X.o. .L c I | | ..{ 4 C I Y Y d S ( ( ",
"( ( / = U { T I P K c 4 4 4 c ~ |  .{ { { { } |  .{ c c }  .......o.J c { ....{ 7 V I { { ~ f A ( ( ",
"( ( ( A d { T Y { U P V K J ; | ..|  . .} ....} o.} c U ......| } ..| ; U  .} 4 V I ~ { Y c A ( ( ( ",
"( ( ( ! 1 C Y { Y { ~ K c : Y o.........o.o. ...I 2 n o.o.{ }  .o...c V { ..4 V I ~ ~ n d 3 ! ( ( ( ",
"( ( ( ( D < f U { ~ { V d ~ V U o... ...........n c n }  .c c { n K V c n V 2 d I ~ I , A D ( ( ( ( ",
"( ( ( ( ( S c I ~ Y ~ V 4 4 4 4 K  .Y 2 I v 2 c c 4 d 4 2 v B 4 d 4 4 c 4 c H v : 2 K m A ( ( ( ( ( ",
"( ( ( ( ( ! 1 2 U } K 4 J V K K 4 o 2 n 2 v n n n I ~ 2 c I I V P J n K P U ~ V , D , s ^ ( ( ( ( ( ",
"( ( ( ( ( ( / S 4 K 1 n P Y Y P K o K U K P I I I I { C 2 L Y I I P U Y Y Y K s / ( ^ ^ ( ( ( ( ( ( ",
"( ( ( ( ( ( ( ! s s D ; Y { ~ Y L d 4 J U U { { { Y { : V I ~ { Y Y ~ { { { ; G ( ( ( ( ( ( ( ( ( ( ",
"( ( ( ( ( ( ( ( ! F k J { T T } U K v 4 L { { { T { { J 2 K U { { ~ Y { ~ U : ! ( ( ( ( ( ( ( ( ( ( ",
"( ( ( ( ( ( ( ( ( ( , n v U T { I K U 4 n { K U { I } I . : C K K n = V n * A ( ( ( ( ( ( ( ( ( ( ( ",
"( ( ( ( ( ( ( ( ( ( ! z g V J n 3 f v - n B @ 7 b > n > y q X , , z / g h / ( ( ( ( ( ( ( ( ( ( ( / ",
"( ( ( ( ( ( ( ( ( ( ( ( S d k h D x h h 4 O u q & w % w 8 5 D ( ( ( ( ( ( ( ( ( ( ( ( ( ( ( ( ( ( ( ",
"( ( ( ( ( ( ( ( ( ( ( ( ( D ( ( ( ( ( ( F x 8 i p i i 8 x F ( ( ( ( ( ( ( ( ( ( ( ( ( / ( ( ( ( ( ( ",
"( ( ( ( ( ( ( ( ( ( ( ( ( ( ( ( ( ( ( ( ( ( l 0 a p 0 l ( ( ( ( ( ( ( ( ( ( ( ( ( ( ( ( ( ( ( ( ( ( ",
"( ( ( ( / ( ( ( ( ( ( ( ( ( ( ( ( ( ( ( ( ( Z 0 a E 8 x ( ( ( ( ( ( ( ( ( ( ( ( ( ( ( ( ( ( ( ( ( ( ",
"( ( ( ( ( ( ( ( ( ( ( ( ( ( ( ( ( ( ( ( ( / 6 y a Q y 6 ^ ( ( ( ( ( ( ( ( ( ( ( ( ( ( ( ( ( ( ( ( ( ",
"( ( ( ( ( ( ( ( ( ( ( ( ( ( ( ( ( ( ( ( ( F $ a W Q E $ F ( ( ( ( ( ( ( ( ( / ( ( ( ( ( ( ( ( ( ( ( ",
"( ( ( ( ( ( ( ( ( ( ( ( ( ( ( ( ( ( ( ( ( A % a W E E 8 Z ( / ( ( ( ( ( ( ( ( ( ( ( ( ( ( ( ( ( ( ( ",
"/ ( ( ( ( ( ( ( ( ( ( ( ( ( ( ( ( ( ( / / + u E W W a u # / ( ( ( ( ( ( ( ( ( ( ( ( ( ( ( ( ( ( / ( ",
"( ( ( ( ( ( ( ( ( ( ( ( ( ( ( ( ( ( ( ( / + u E W R a u # / ( ( ( ( ( ( ( ( ( ( ( ( ( / ( ( ( ( ( ( ",
"( ( ( ( ( ( ( ( ( ( ( / ( ( ( ( ( ( ( ( g w R Q Q a a p r g ( ( ( ( ( ( ( ( ( / ( ( ( ( ( ( ( ( ( ( ",
"( ( ( ( ( ( ( ( ( ( ( ( ( ( ( ( ( ( ( ( , t a a a p a a t , ( ( ( ( ( ( ( ( ( ( ( ( ( ( ( / ( ( ( ( ",
"( ( ( ( ( ( ( / ( ( ( ( ( ( ( ( ( ( ( D 5 u a a p i a a y 5 D ( ( ( ( ( ( ( ( ( ( ( ( ( ( ( ( ( ( ( ",
"( ( ( ( ( ( ( ( ( ( ( ( ( ( ( ( ( ( ( h 0 u p p y u p p a 0 h ( ( ( ( ( ( ( ( ( ( ( ( ( ( ( ( ( ( ( ",
"( ( / ( ( ( ( ( ( ( ( ( ( ( ( ( ( ! l @ 5 5 y y 9 t i i r r $ D ( ( ( ( ( ( ( ( ( ( ( ( ( ( ( ( ( ( ",
"( ( ( ( ( ( ( ( ( ( ( ( ( ( ( ( D X d c ....% % ~ M r w c e   g / ( ( ( ( ( ( ( ( ( ( ( ( ( ( ( ( ( ",
"( ( ( ( ( ( ( ( ( ( ( ( ( ( ( ` ~ I @.#.#.+.B m O.+.m N @.O.K P [ ( ( ( ( ( ( ( ( ( ( / ( ( ( ( ( ( ",
"( ( ( ( ( ( ( ( ( ( / ( ( ( ( _ ] ] ' ` ` ' ) ) ' ` ) ) ' ' ' ' ` ( ( ( ( ( ( ( ( ( ( ( ( ( ( ( ( ( ",
"( ( ( ( ( ( ( ( ( ( ( ( ( ( ( ( ( ( ( ( ( ( ( ( ( ( ( ( ( ( ( ( ( ( ( ( ( ( ( ( ( ( ( ( ( ( ( ( ( ( ",
"( ( ( ( ( ( ( ( ( ( ( ( ( ( ( ( ( ( ( ( ( ( ( ( ( ( ( ( ( ( ( ( ( ( ( ( ( ( ( ( ( ( ( ( ( ( ( ( ( ( "
};
