/* XPM */
static char *wall[] = {
/* columns rows colors chars-per-pixel */
"50 50 40 1 ",
"  c #764E29",
". c #794F29",
"X c #7C5129",
"o c #805227",
"O c #885627",
"+ c #835529",
"@ c #885728",
"# c #85592B",
"$ c #8B5B2A",
"% c #915E2A",
"& c #8E602D",
"* c #94632D",
"= c #99662D",
"- c #9D692E",
"; c #9C6B30",
": c #A16C2F",
"> c #A5702F",
", c #AD742F",
"< c #B0752E",
"1 c #B67A2F",
"2 c #BC7D2E",
"3 c #A26E30",
"4 c #A67131",
"5 c #AB7532",
"6 c #AF7832",
"7 c #B07730",
"8 c #B37931",
"9 c #B87C30",
"0 c #C07F2D",
"q c #BC8133",
"w c #C4812D",
"e c #C9852D",
"r c #CE892F",
"t c #D08A2F",
"y c #C38432",
"u c #C98730",
"i c #CD8A31",
"p c #D18D31",
"a c #D59234",
"s c #D89536",
/* pixels */
" $458w1-X X3quapeeq,*OOX..$5qwepaewee14$@#.@4555$ ",
"&-8qyw8=. X4qupreq1,=OO+ .&,1wetieew214%O+ #=--=# ",
"59eaae9;X.X31wwww7>>*OOX..$>41wwwww0,43$+  X@@$@+X",
"wuassau13X#461767,:*$OXoX.X=451188855=+XX+X X@@@*;",
"epsappe95&X&=-----*++X.X$X.+*---;;--=# #$*$# X+@;5",
"eiauww84>&  +$$$$$+....+O$+X#$$$$$$@X X;555*X X#;5",
"aaaq88*##X ...XX.X..X+++X$*=----;;&X #;4828-+  X*5",
"aai84;X X#+XX.   ..XOOOX.O=5611185# X=562w83*$XX&5",
"eew6=X X34;&O+.  +@@@@@X.+*7qwww25$X;55wew8445;X&5",
"191*X &;554;&X .+@%--;;#..&6wrtw85*@492wee2296;X*5",
"33=X #-66165* .X@$=4685&. $5wpaq4:%%49eeereru8;X&;",
"XXX #346qwq5&.+#$-45225&  $5isaq:%O%39eaaaspe8;X X",
"&&&&=412eew7&X*=-,21uu5$  &5qqyq:@%:<0eassae98;X  ",
"556,66wreeq4&X;5<werai6&  $>4443-%-7werasar254=X  ",
"58qwqwrapw># X39wwrppw5*+ +%%$&$*:47wtasssr24=@X  ",
"8qerttassq-XX&38erpsrw,=#+o++$@#*482wpssspw85*@.X&",
"eweasssssq3X$558epsai05*OO+ @@@@%51eeiaspw854*X.*5",
"eweasssauq;X&52easai975*XO+.+OO$%,710rrr0753*@. *5",
"20easparq8;X&6wrappw843@XO+ X++O%=3,2202853=@X X*5",
",1eapeeq55;X&5weeeew83%O@$+ .X.@$$-,5,5555%OOX.@=4",
"51ery1185-$X*588111883$++*;****;=O%=*****%+.X..O$#",
"-,ww95;;-*XX$:3::;::3=@@$5888886:$OOOOO+@O+.X.+O+.",
"X*5554$XX X o$%%$$$%$$$=52wwwwy7:$OOO$@.XOOOOOOO@@",
" X&$**#X    .oOOO+Xo%==:5wtppu25:%O$OO@+@O$@$@O+X+",
"    +O$+ ..  X+O#X  *5669easaq54=##$OO@@@@@+@@+   ",
"   +#$OO@@+   O$@X  =6wuaassq54&XX+O$o.X X X X    ",
"&&&@O$+o+@O+X++O@+X+=8upaiqq63;&$$*==@X   X+$&$&&$",
"454&OOX.X@$$$$%$$@$$=5yii6444;&;55555=OX X#*455555",
"w94%+X.X=33:3:::33=$#$5986*+X&;582w25-#X #=451ww2y",
"e2>%o..$4888811188:@XX**=;$+#*562ir05;&X+*458uitti",
"w24*o.+*52eweewww8-$X X X#O$;559raiw653X$458wpssss",
"e24@..o%:2eerpr085:$X +X @O$38qiaapw654X$58epsssss",
"w1*X  #-5wuraae25:=$X.++.O$=39uassu1::-@$50rassppa",
"5*X  X*8wpsssar25*OOX .+OO=35qasssq4%$$O*50eepprer",
"5*XX X-8wpssare24%@@OX..+X*51wipuq83$OOO$=<98qq911",
"4=#X X*8epsarww95%$@O+..  $52www954;#@@@+@=33333::",
"$$#.X$-8wparew854%@OXX@o  &5555555-@X ...XO%%$$$%$",
"XX+Xo$-1eri22163=@+X..@X  #$&&&&*=@X XX+. XoO@+oXX",
"+X#@$$:<ww26443*@. ..XO+....XX  X@+XX#%$@..X+X . .",
"-;;3=$-,5865-%#X. .+@OOO@+@++X  X@*;;;34*@... .+@@",
"57853*-;-***$X  +#&*=%$O+O$$@oX#%*:58285-@X  .@*=*",
"52w154*##+ XX XX$-555:$o.OO+X+$:555<wew7-OX  +*355",
"iuww94& ...o++++$:8283$X.O+XX$-48200wew7*X .@*3580",
"saew85# ..X%*%***38w1:%X.O++$-562weerrw8* X#*357wi",
"spw854#  o%:,45>558w1:$X.+$$-552weeeapw7*.X*357wpa",
"irw8;$. +*:512229uue1:%oX.$:482wrppaspw7*..$58wpss",
"w1<:$  X@=551errraae1:$X  *511eepassaiw8*X #52uaaa",
"5-+XX @+X*551rpaaspe1:$XX+*,2wepassaeew5-#.#52rape",
"$+ $**;& X=4quassae16>$+++=,0rpasspre015-O.#52eiw8",
"  X;555;  X49uasarq45-$$O$=,0rsssspwe155-@.#42ee15"
};
